<svg xmlns="http://www.w3.org/2000/svg" version="1.1" xmlns:xlink="http://www.w3.org/1999/xlink" xmlns:svgjs="http://svgjs.dev/svgjs" width="1000" height="1000" viewBox="0 0 1000 1000"><rect width="1000" height="1000" fill="#ffffff"></rect><g transform="matrix(0.7,0,0,0.7,149.57575757575756,354.428770974356)"><svg viewBox="0 0 396 165" data-background-color="#08113b" preserveAspectRatio="xMidYMid meet" height="416" width="1000" xmlns="http://www.w3.org/2000/svg" xmlns:xlink="http://www.w3.org/1999/xlink"><g id="tight-bounds" transform="matrix(1,0,0,1,0.2400000000000091,-0.016302234782784808)"><svg viewBox="0 0 395.52 165.03260446956557" height="165.03260446956557" width="395.52"><g><svg viewBox="0 0 395.52 165.03260446956557" height="165.03260446956557" width="395.52"><g><svg viewBox="0 0 395.52 165.03260446956557" height="165.03260446956557" width="395.52"><g id="textblocktransform"><svg viewBox="0 0 395.52 165.03260446956557" height="165.03260446956557" width="395.52" id="textblock"><g><svg viewBox="0 0 395.52 108.01815857661082" height="108.01815857661082" width="395.52"><g transform="matrix(1,0,0,1,0,0)"><svg width="395.52" viewBox="0.95 -38.09 141.33 38.60000000000001" height="108.01815857661082" data-palette-color="#4fffb0"><path d="M18.95 0.51L18.95 0.51Q14.72 0.51 11.51-0.95 8.3-2.42 6.52-5.2 4.74-7.98 4.74-11.96L4.74-11.96 4.74-30.52 0.95-31.25 0.95-35.55 15.67-35.55 15.67-31.25 11.87-30.52 11.87-11.96Q11.87-9.62 12.72-8.06 13.57-6.49 15.16-5.73 16.75-4.96 18.95-4.96L18.95-4.96Q21.19-4.96 22.79-5.73 24.39-6.49 25.24-8.06 26.1-9.62 26.1-11.96L26.1-11.96 26.1-30.52 22.31-31.25 22.31-35.55 37.04-35.55 37.04-31.25 33.23-30.52 33.23-11.96Q33.23-7.98 31.43-5.19 29.64-2.39 26.43-0.94 23.22 0.51 18.95 0.51ZM56.81 0L39.33 0 39.33-4.27 43.11-5 43.11-30.52 39.33-31.25 39.33-35.55 43.11-35.55 55.12-35.55Q61.4-35.55 64.91-33.11 68.43-30.66 68.43-25.81L68.43-25.81Q68.43-23.34 67.12-21.4 65.82-19.46 63.33-18.48L63.33-18.48Q65.45-18.02 66.88-16.85 68.31-15.67 69.02-14 69.72-12.33 69.72-10.35L69.72-10.35Q69.72-5.25 66.35-2.62 62.99 0 56.81 0L56.81 0ZM50.24-15.72L50.24-5.47 56.81-5.47Q59.64-5.47 61.13-6.7 62.62-7.93 62.62-10.35L62.62-10.35Q62.62-12.11 62.06-13.31 61.5-14.5 60.34-15.11 59.18-15.72 57.35-15.72L57.35-15.72 50.24-15.72ZM50.24-30.05L50.24-20.65 55.37-20.65Q58.23-20.65 59.76-21.83 61.3-23 61.3-25.24L61.3-25.24Q61.3-27.71 59.75-28.88 58.2-30.05 55.12-30.05L55.12-30.05 50.24-30.05ZM86.08 0L72.09 0 72.09-4.27 75.53-5 75.53-21.39 71.72-22.12 71.72-26.42 82.66-26.42 82.66-5 86.08-4.27 86.08 0ZM82.66-32.01L75.29-32.01 75.29-38.09 82.66-38.09 82.66-32.01ZM101.68 0L88.05 0 88.05-4.27 91.5-5 91.5-33.06 87.69-33.79 87.69-38.09 98.6-38.09 98.6-5 101.68-4.27 101.68 0ZM118.08 0L104.88 0 104.88-4.05 106.88-4.52 106.83-4.61 101.6-11.72 106.14-16.38 114.81-5.03 118.08-4.27 118.08 0ZM113.57-21.26L97.84-7.23 94.43-11.21 105.9-21.7 105.95-21.78 103.24-22.17 103.24-26.42 116.98-26.42 116.98-22.12 113.57-21.26ZM131.9 0.51L131.9 0.51Q128.12 0.51 125.28-1.16 122.45-2.83 120.9-5.76 119.35-8.69 119.35-12.45L119.35-12.45 119.35-13.43Q119.35-17.36 120.82-20.4 122.28-23.44 124.95-25.18 127.63-26.93 131.26-26.9L131.26-26.9Q134.85-26.9 137.29-25.49 139.74-24.07 141.01-21.41 142.28-18.75 142.28-14.97L142.28-14.97 142.28-11.08 126.75-11.08 126.7-10.94Q126.85-9.2 127.57-7.85 128.29-6.49 129.6-5.73 130.92-4.96 132.8-4.96L132.8-4.96Q134.76-4.96 136.45-5.46 138.15-5.96 139.76-6.93L139.76-6.93 141.69-2.54Q140.05-1.22 137.58-0.35 135.1 0.51 131.9 0.51ZM126.72-15.92L126.8-15.8 135.61-15.8 135.61-16.43Q135.61-18.04 135.18-19.2 134.76-20.36 133.82-21 132.88-21.63 131.39-21.63L131.39-21.63Q129.97-21.63 128.99-20.89 128.02-20.14 127.47-18.85 126.92-17.55 126.72-15.92L126.72-15.92Z" opacity="1" transform="matrix(1,0,0,1,0,0)" fill="#000000" class="wordmark-text-0" data-fill-palette-color="primary" id="text-0"></path></svg></g></svg></g><g transform="matrix(1,0,0,1,163.310208,133.5186533807428)"><svg viewBox="0 0 232.209792 31.51395108882278" height="31.51395108882278" width="232.209792"><g transform="matrix(1,0,0,1,0,0)"><svg width="232.209792" viewBox="1.6 -36.7 352.90999999999997 47.9" height="31.51395108882278" data-palette-color="#ffffff"><path d="M16.4-20.7L16.4-20.7Q16.5-20.8 16.95-22L16.95-22Q19.3-22 23.25-20.6L23.25-20.6Q22-16.45 21.25-11.93 20.5-7.4 20.5-5.48 20.5-3.55 20.9-3.55L20.9-3.55Q21.2-3.55 23.1-4.5L23.1-4.5 23.7-4.8 24.6-3.05Q24.15-2.65 23.43-2.05 22.7-1.45 20.7-0.43 18.7 0.6 17.1 0.6L17.1 0.6Q14 0.6 13.5-2.2L13.5-2.2Q10.3 0.6 7.73 0.6 5.15 0.6 3.38-1.4 1.6-3.4 1.6-7.7L1.6-7.7Q1.6-14.4 4.35-18.28 7.1-22.15 11-22.15L11-22.15Q13.8-22.15 16.4-20.7ZM10.7-3.65L10.7-3.65Q11.9-3.65 13.4-4.6L13.4-4.6Q13.75-11.65 15.75-18.55L15.75-18.55Q14.25-19.2 13.2-19.2L13.2-19.2Q11.4-19.2 10.13-15.68 8.85-12.15 8.85-7.9 8.85-3.65 10.7-3.65ZM26.85 0.15L26.85 0.15 25.9 0.15Q25.9-2.2 27.32-8.85 28.75-15.5 28.75-16.4L28.75-16.4Q28.75-18.05 27.35-19.9L27.35-19.9 26.9-20.5 26.95-21.15Q29.65-21.9 35.6-21.9L35.6-21.9Q36.25-21.05 36.3-18.8L36.3-18.8Q40.65-22.15 43.65-22.15L43.65-22.15Q45.45-22.15 46.52-20.9 47.6-19.65 47.6-17.78 47.6-15.9 46.45-11.3 45.3-6.7 45.3-5.13 45.3-3.55 45.7-3.55L45.7-3.55Q46-3.55 47.8-4.5L47.8-4.5 48.4-4.8 49.3-3.05Q48.85-2.65 48.1-2.05 47.35-1.45 45.32-0.43 43.3 0.6 41.7 0.6L41.7 0.6Q38.05 0.6 38.05-3.55L38.05-3.55Q38.05-5.3 39.17-10 40.3-14.7 40.3-16.05 40.3-17.4 39.45-17.4L39.45-17.4Q38-17.4 35.9-16.15L35.9-16.15Q35.75-15.3 34.9-11.65L34.9-11.65Q33.15-3.8 33.15-0.55L33.15-0.55Q31.4 0.15 26.85 0.15ZM57.72 5.4Q56.05 6.4 56.05 7.35 56.05 8.3 57.12 8.3 58.2 8.3 59.55 7.28 60.9 6.25 61.8 3.95L61.8 3.95Q59.4 4.4 57.72 5.4ZM55.3 0.2L55.3 0.2Q51.1 0.2 51.1-4.4L51.1-4.4Q51.1-5.5 52.1-10.75 53.1-16 53.1-19.5L53.1-19.5Q53.1-20.25 52.9-20.9L52.9-20.9Q55.6-21.95 60.3-21.95L60.3-21.95Q60.55-21.25 60.55-19.55 60.55-17.85 59.45-12.5 58.35-7.15 58.35-5.6 58.35-4.05 59.65-4.05L59.65-4.05Q61.2-4.05 63.4-5.6L63.4-5.6Q63.65-8.55 65.4-21.15L65.4-21.15Q67.15-21.85 71.7-21.85L71.7-21.85 72.65-21.85Q71.7-18.1 70.8-11.05 69.9-4 69.34-1.25L69.34-1.25Q68.3 4.25 65.47 7.73 62.65 11.2 58.1 11.2L58.1 11.2Q56.3 11.2 54.82 10.25 53.35 9.3 53.35 7.8L53.35 7.8Q53.35 5.8 55.8 4.15 58.25 2.5 62.4 1.6L62.4 1.6Q62.85-0.6 63.1-2.65L63.1-2.65Q59.05 0.2 55.3 0.2ZM84.54-21.55L89.39-21.55Q89.29-20.3 88.54-18.65L88.54-18.65Q86.64-18.85 84.94-18.85L84.94-18.85 84.04-18.85Q81.74-7.7 81.74-4.95L81.74-4.95Q81.74-3.5 82.37-3.5 82.99-3.5 85.69-4.75L85.69-4.75 86.59-3.1Q82.14 0.6 78.34 0.6L78.34 0.6Q76.59 0.6 75.47-0.5 74.34-1.6 74.34-3.43 74.34-5.25 74.77-7.55 75.19-9.85 75.94-13.18 76.69-16.5 77.04-18.55L77.04-18.55Q75.19-18.4 74.29-18.25L74.29-18.25Q74.19-18.85 74.19-19.88 74.19-20.9 74.34-21.55L74.34-21.55 77.49-21.55Q77.89-24.25 77.89-26.65L77.89-26.65 77.84-28.2 77.84-28.35Q81.74-29.7 85.19-29.7L85.19-29.7Q85.39-28.7 85.39-27.2 85.39-25.7 84.54-21.55L84.54-21.55ZM99.34-19.05Q99.34-16.95 97.99-11.83 96.64-6.7 96.64-5.13 96.64-3.55 97.09-3.55L97.09-3.55Q97.39-3.55 99.39-4.5L99.39-4.5 99.99-4.8 100.84-3.05Q100.39-2.65 99.64-2.05 98.89-1.45 96.84-0.43 94.79 0.6 93.04 0.6 91.29 0.6 90.29-0.48 89.29-1.55 89.29-3.38 89.29-5.2 90.54-9.88 91.79-14.55 91.79-15.95L91.79-15.95Q91.79-18.05 90.49-19.9L90.49-19.9 90.04-20.5 90.09-21.15Q92.74-21.9 98.69-21.9L98.69-21.9Q99.34-21.15 99.34-19.05ZM93.64-27.38Q92.64-28.35 92.64-30 92.64-31.65 94.02-32.9 95.39-34.15 97.19-34.15 98.99-34.15 99.99-33.15 100.99-32.15 100.99-30.53 100.99-28.9 99.57-27.65 98.14-26.4 96.39-26.4 94.64-26.4 93.64-27.38ZM103.94 0.15L103.94 0.15 102.99 0.15Q102.99-2.2 104.41-8.85 105.84-15.5 105.84-16.4L105.84-16.4Q105.84-18.05 104.44-19.9L104.44-19.9 103.99-20.5 104.04-21.15Q106.74-21.9 112.69-21.9L112.69-21.9Q113.39-20.95 113.39-18.8L113.39-18.8Q117.89-22.15 120.54-22.15L120.54-22.15Q123.89-22.15 124.49-18.7L124.49-18.7Q125.84-19.8 128.01-20.98 130.19-22.15 131.91-22.15 133.64-22.15 134.79-21.03 135.94-19.9 135.94-17.9 135.94-15.9 134.84-11.3 133.74-6.7 133.74-5.13 133.74-3.55 134.19-3.55L134.19-3.55Q134.49-3.55 136.24-4.5L136.24-4.5 136.79-4.8 137.69-3.05Q136.39-1.75 134.16-0.58 131.94 0.6 130.24 0.6L130.24 0.6Q126.49 0.6 126.49-3.65L126.49-3.65Q126.49-5.2 127.56-9.88 128.64-14.55 128.64-15.98 128.64-17.4 127.79-17.4L127.79-17.4Q126.34-17.4 124.49-16.3L124.49-16.3Q124.39-15.3 123.11-9.5 121.84-3.7 121.84-0.5L121.84-0.5Q120.39 0.15 115.04 0.15L115.04 0.15Q114.94-0.4 114.94-2.5 114.94-4.6 116.11-9.65 117.29-14.7 117.29-16.05 117.29-17.4 116.34-17.4L116.34-17.4Q114.84-17.4 113.04-16.2L113.04-16.2Q112.94-15.75 112.04-11.8L112.04-11.8Q110.24-3.9 110.24-0.55L110.24-0.55Q108.49 0.15 103.94 0.15ZM139.09-8.65L139.09-8.65Q139.09-14.9 142.86-18.53 146.64-22.15 151.44-22.15L151.44-22.15Q154.39-22.15 156.29-20.7 158.19-19.25 158.19-16.82 158.19-14.4 156.96-12.75 155.74-11.1 153.99-10.2L153.99-10.2Q150.44-8.45 147.49-8L147.49-8 146.29-7.85Q146.64-3.15 150.14-3.15L150.14-3.15Q151.34-3.15 152.69-3.75 154.04-4.35 154.79-4.95L154.79-4.95 155.54-5.55 156.74-3.95Q156.34-3.4 155.14-2.5 153.94-1.6 152.89-1L152.89-1Q149.99 0.6 146.54 0.6 143.09 0.6 141.09-1.85 139.09-4.3 139.09-8.65ZM146.24-10.3Q148.79-10.75 150.29-12.45 151.79-14.15 151.79-16.85 151.79-19.55 150.19-19.55L150.19-19.55Q148.29-19.55 147.26-16.32 146.24-13.1 146.24-10.3L146.24-10.3ZM184.13-20.7L184.13-20.7Q184.23-20.8 184.68-22L184.68-22Q187.03-22 190.98-20.6L190.98-20.6Q189.73-16.45 188.98-11.93 188.23-7.4 188.23-5.48 188.23-3.55 188.63-3.55L188.63-3.55Q188.93-3.55 190.83-4.5L190.83-4.5 191.43-4.8 192.33-3.05Q191.88-2.65 191.16-2.05 190.43-1.45 188.43-0.43 186.43 0.6 184.83 0.6L184.83 0.6Q181.73 0.6 181.23-2.2L181.23-2.2Q178.03 0.6 175.46 0.6 172.88 0.6 171.11-1.4 169.33-3.4 169.33-7.7L169.33-7.7Q169.33-14.4 172.08-18.28 174.83-22.15 178.73-22.15L178.73-22.15Q181.53-22.15 184.13-20.7ZM178.43-3.65L178.43-3.65Q179.63-3.65 181.13-4.6L181.13-4.6Q181.48-11.65 183.48-18.55L183.48-18.55Q181.98-19.2 180.93-19.2L180.93-19.2Q179.13-19.2 177.86-15.68 176.58-12.15 176.58-7.9 176.58-3.65 178.43-3.65ZM194.58 0.15L194.58 0.15 193.63 0.15Q193.63-2.2 195.05-8.85 196.48-15.5 196.48-16.4L196.48-16.4Q196.48-18.05 195.08-19.9L195.08-19.9 194.63-20.5 194.68-21.15Q197.38-21.9 203.33-21.9L203.33-21.9Q203.98-21.05 204.03-18.8L204.03-18.8Q208.38-22.15 211.38-22.15L211.38-22.15Q213.18-22.15 214.25-20.9 215.33-19.65 215.33-17.78 215.33-15.9 214.18-11.3 213.03-6.7 213.03-5.13 213.03-3.55 213.43-3.55L213.43-3.55Q213.73-3.55 215.53-4.5L215.53-4.5 216.13-4.8 217.03-3.05Q216.58-2.65 215.83-2.05 215.08-1.45 213.05-0.43 211.03 0.6 209.43 0.6L209.43 0.6Q205.78 0.6 205.78-3.55L205.78-3.55Q205.78-5.3 206.9-10 208.03-14.7 208.03-16.05 208.03-17.4 207.18-17.4L207.18-17.4Q205.73-17.4 203.63-16.15L203.63-16.15Q203.48-15.3 202.63-11.65L202.63-11.65Q200.88-3.8 200.88-0.55L200.88-0.55Q199.13 0.15 194.58 0.15ZM225.45 5.4Q223.78 6.4 223.78 7.35 223.78 8.3 224.85 8.3 225.93 8.3 227.28 7.28 228.63 6.25 229.53 3.95L229.53 3.95Q227.13 4.4 225.45 5.4ZM223.03 0.2L223.03 0.2Q218.83 0.2 218.83-4.4L218.83-4.4Q218.83-5.5 219.83-10.75 220.83-16 220.83-19.5L220.83-19.5Q220.83-20.25 220.63-20.9L220.63-20.9Q223.33-21.95 228.03-21.95L228.03-21.95Q228.28-21.25 228.28-19.55 228.28-17.85 227.18-12.5 226.08-7.15 226.08-5.6 226.08-4.05 227.38-4.05L227.38-4.05Q228.93-4.05 231.13-5.6L231.13-5.6Q231.38-8.55 233.13-21.15L233.13-21.15Q234.88-21.85 239.43-21.85L239.43-21.85 240.38-21.85Q239.43-18.1 238.53-11.05 237.63-4 237.08-1.25L237.08-1.25Q236.03 4.25 233.2 7.73 230.38 11.2 225.83 11.2L225.83 11.2Q224.03 11.2 222.55 10.25 221.08 9.3 221.08 7.8L221.08 7.8Q221.08 5.8 223.53 4.15 225.98 2.5 230.13 1.6L230.13 1.6Q230.58-0.6 230.83-2.65L230.83-2.65Q226.78 0.2 223.03 0.2ZM242.57-4.1L242.57-4.1 243.12-17.15Q243.12-18.85 241.32-20.65L241.32-20.65 241.42-21.25Q241.77-21.35 242.1-21.43 242.42-21.5 242.85-21.6 243.27-21.7 243.82-21.8 244.37-21.9 244.97-22L244.97-22Q246.37-22.15 247.6-22.15 248.82-22.15 249.7-21.15 250.57-20.15 250.57-17.98 250.57-15.8 249.9-11.78 249.22-7.75 249.22-5.78 249.22-3.8 250.17-3.8L250.17-3.8Q251.72-3.8 253.57-5.75L253.57-5.75Q253.62-6.55 254.22-10.85 254.82-15.15 254.82-17.1 254.82-19.05 254.52-20.45L254.52-20.45Q258.37-21.9 261.42-21.9L261.42-21.9Q262.07-21.45 262.07-18.98 262.07-16.5 261.22-12.13 260.37-7.75 260.37-5.78 260.37-3.8 261.17-3.8L261.17-3.8Q263.07-3.8 265.32-6.63 267.57-9.45 267.72-11.35L267.72-11.35 264.32-15.15Q264.52-17.3 265.37-19.05 266.22-20.8 266.97-21.5L266.97-21.5 267.67-22.15Q269.82-22.15 270.92-21 272.02-19.85 272.02-18.3L272.02-18.3Q272.02-14.35 270.07-9.95 268.12-5.55 264.82-2.48 261.52 0.6 258.12 0.6L258.12 0.6Q256.42 0.6 255.25-0.38 254.07-1.35 253.67-2.9L253.67-2.9Q250.17 0.6 246.87 0.6L246.87 0.6Q244.67 0.6 243.62-0.78 242.57-2.15 242.57-4.1ZM278.52-33L278.52-33Q278.52-34.65 278.22-35.35L278.22-35.35Q282.12-36.7 285.57-36.7L285.57-36.7Q286.02-36.25 286.02-34.4L286.02-34.4Q286.02-31.1 283.22-19.2L283.22-19.2Q287.27-22.15 290.32-22.15L290.32-22.15Q292.22-22.15 293.19-20.95 294.17-19.75 294.17-17.78 294.17-15.8 293.02-11.33 291.87-6.85 291.87-5.2 291.87-3.55 292.27-3.55 292.67-3.55 294.37-4.45L294.37-4.45 294.97-4.75 295.87-3Q295.42-2.6 294.67-2 293.92-1.4 291.92-0.4 289.92 0.6 288.25 0.6 286.57 0.6 285.57-0.48 284.57-1.55 284.57-3.38 284.57-5.2 285.69-10.03 286.82-14.85 286.82-16.13 286.82-17.4 285.77-17.4L285.77-17.4Q284.47-17.4 282.52-16.3L282.52-16.3Q279.77-4.2 279.77-0.6L279.77-0.6Q277.67 0.2 272.62 0.2L272.62 0.2Q272.57-0.65 272.57-1.3L272.57-1.3Q272.57-3.45 275.55-16 278.52-28.55 278.52-33ZM297.27-8.65L297.27-8.65Q297.27-14.9 301.04-18.53 304.82-22.15 309.62-22.15L309.62-22.15Q312.57-22.15 314.47-20.7 316.37-19.25 316.37-16.82 316.37-14.4 315.14-12.75 313.92-11.1 312.17-10.2L312.17-10.2Q308.62-8.45 305.67-8L305.67-8 304.47-7.85Q304.82-3.15 308.32-3.15L308.32-3.15Q309.52-3.15 310.87-3.75 312.22-4.35 312.97-4.95L312.97-4.95 313.72-5.55 314.92-3.95Q314.52-3.4 313.32-2.5 312.12-1.6 311.07-1L311.07-1Q308.17 0.6 304.72 0.6 301.27 0.6 299.27-1.85 297.27-4.3 297.27-8.65ZM304.42-10.3Q306.97-10.75 308.47-12.45 309.97-14.15 309.97-16.85 309.97-19.55 308.37-19.55L308.37-19.55Q306.47-19.55 305.44-16.32 304.42-13.1 304.42-10.3L304.42-10.3ZM318.42 0.15L318.42 0.15 318.06 0.15Q317.97-0.25 317.97-1.68 317.97-3.1 319.31-9.35 320.67-15.6 320.67-16.5L320.67-16.5Q320.67-18.05 319.27-19.9L319.27-19.9 318.81-20.5 318.87-21.15Q321.56-21.9 327.52-21.9L327.52-21.9Q328.12-20.6 328.12-18.25L328.12-18.25Q328.67-19.15 330.42-20.65 332.17-22.15 334.02-22.15L334.02-22.15Q336.72-22.15 336.72-17.45L336.72-17.45Q336.47-17.15 336.04-16.68 335.62-16.2 334.34-15.35 333.06-14.5 331.87-14.3L331.87-14.3Q331.81-14.3 331.02-15.65 330.22-17 329.81-17L329.81-17Q328.56-16.55 327.62-15.5L327.62-15.5Q325.31-5.15 325.31-2.1L325.31-2.1Q325.31-1 325.37-0.55L325.37-0.55Q323.62 0.15 318.42 0.15ZM335.41-8.65L335.41-8.65Q335.41-14.9 339.19-18.53 342.96-22.15 347.76-22.15L347.76-22.15Q350.71-22.15 352.61-20.7 354.51-19.25 354.51-16.82 354.51-14.4 353.29-12.75 352.06-11.1 350.31-10.2L350.31-10.2Q346.76-8.45 343.81-8L343.81-8 342.61-7.85Q342.96-3.15 346.46-3.15L346.46-3.15Q347.66-3.15 349.01-3.75 350.36-4.35 351.11-4.95L351.11-4.95 351.86-5.55 353.06-3.95Q352.66-3.4 351.46-2.5 350.26-1.6 349.21-1L349.21-1Q346.31 0.6 342.86 0.6 339.41 0.6 337.41-1.85 335.41-4.3 335.41-8.65ZM342.56-10.3Q345.11-10.75 346.61-12.45 348.11-14.15 348.11-16.85 348.11-19.55 346.51-19.55L346.51-19.55Q344.61-19.55 343.59-16.32 342.56-13.1 342.56-10.3L342.56-10.3Z" opacity="1" transform="matrix(1,0,0,1,0,0)" fill="#000000" class="slogan-text-1" data-fill-palette-color="secondary" id="text-1"></path></svg></g></svg></g></svg></g></svg></g></svg></g><defs></defs></svg><rect width="395.52" height="165.03260446956557" fill="none" stroke="none" visibility="hidden"></rect></g></svg></g></svg>